<svg xmlns="http://www.w3.org/2000/svg" viewBox="0 0 263.33 92.17"><defs><style>      .cls-1 {        fill: #211B14;      }    </style></defs><g><g id="Livello_1"><g><path class="cls-1" d="M128.62.05h-2.37c-5.02,0-9.34,2.55-11.58,6.83-2.02,3.83-2.02,10.14-2.02,13.52v14.93h-4.84v5.37h4.84v50.89h5.84s0-50.65,0-50.89h9.18v-5.37h-9.18v-14.56c0-4.14,0-9.82,2.96-12.78,1.27-1.27,3-1.92,5.12-1.92.02,0,2.17,0,2.17,0V.05h-.12Z"></path><polygon class="cls-1" points="140.58 .05 134.74 .05 134.74 91.6 140.83 91.6 140.83 .05 140.58 .05"></polygon><polygon class="cls-1" points="101.58 .05 95.74 .05 95.74 91.6 101.83 91.6 101.83 .05 101.58 .05"></polygon><path class="cls-1" d="M196.44,35.33c.33.39,23.76,28.14,23.76,28.14,0,0-23.42,27.75-23.76,28.14h7.63c.07-.09,19.94-23.62,19.94-23.62,0,0,19.87,23.54,19.95,23.62.11,0,7.14,0,7.63,0-.34-.4-23.75-28.14-23.75-28.14,0,0,23.42-27.74,23.75-28.14h-7.64c-.07.09-19.93,23.62-19.93,23.62l-19.93-23.62s-7.15,0-7.64,0"></path><path class="cls-1" d="M61.57,86.4c-12.16,0-22.05-10.21-22.05-22.77s9.89-22.99,22.05-22.99c13.17,0,23.1,9.89,23.1,22.99s-10.15,22.77-23.1,22.77M61.91,34.85c-15.73,0-28.53,12.91-28.53,28.78s12.8,28.55,28.53,28.55,28.87-12.59,28.87-28.66-12.68-28.66-28.87-28.66"></path><path class="cls-1" d="M173.97,40.63c11.06,0,20.09,7.05,22.49,17.53l.07.31h-44.05l.1-.43c2.45-10.25,11.25-17.41,21.39-17.41M203.18,63.51c0-16.07-12.68-28.66-28.87-28.66s-28.53,12.91-28.53,28.78,12.8,28.55,28.53,28.55c14.16,0,25.71-9.42,28.31-22.96-.96,0-5.68,0-6.26,0-2.47,10.13-11.61,17.18-22.4,17.18-11.66,0-21.33-9.43-22.01-21.47l-.03-.51h51.24s0,.02,0,.03v-.03s0,0,0,0c0-.4.02-.9.02-.9"></path><path class="cls-1" d="M20.21,42.76H5.99s0-36.91,0-36.91l14.2-.02h.03c10.21,0,18.48,8.28,18.48,18.49s-8.28,18.44-18.48,18.44M44.48,24.32C44.48,10.92,33.61.05,20.21.05h0S.17.05.17.05v91.53h5.82v-42.99h14.23s0,0,0,0c13.4,0,24.27-10.87,24.27-24.27"></path><path class="cls-1" d="M258.25,42.43c1.88,0,3.4-1.52,3.4-3.4,0-1.88-1.52-3.4-3.4-3.41-1.88,0-3.4,1.53-3.4,3.41,0,1.88,1.52,3.4,3.4,3.4M254.09,39.03c0-2.3,1.86-4.16,4.16-4.16s4.16,1.86,4.16,4.16-1.86,4.16-4.16,4.16-4.16-1.86-4.16-4.16"></path><path class="cls-1" d="M257.61,38.72h.91c.37,0,.57-.16.57-.54s-.2-.52-.57-.52h-.91v1.06ZM256.78,37.01h2.04c.68,0,1.11.47,1.11,1.04,0,.44-.18.78-.6.95h0c.41.12.52.52.55.89.02.24,0,.68.16.89h-.83c-.1-.24-.09-.6-.13-.9-.06-.4-.21-.57-.63-.57h-.83v1.47h-.83v-3.77Z"></path></g></g></g></svg>